<svg xmlns="http://www.w3.org/2000/svg" viewBox="0 0 1600 400" preserveAspectRatio="xMidYMid slice">
<defs>
<linearGradient id="cielo" x1="0" y1="0" x2="0" y2="1"><stop offset="0" stop-color="#16345c"/><stop offset="0.55" stop-color="#3f6596"/><stop offset="1" stop-color="#d6b07e"/></linearGradient>
<radialGradient id="halo"><stop offset="0" stop-color="#f6dfae" stop-opacity=".45"/><stop offset="1" stop-color="#f6dfae" stop-opacity="0"/></radialGradient>
<g id="palma" fill="#0a2240">
<path d="M-5 0C2-45 4-90 12-128L20-127C13-90 11-45 5 0Z"/>
<path d="M16-130Q-14-150-58-122Q-20-136 16-124Z"/>
<path d="M16-130Q48-152 92-126Q52-138 16-124Z"/>
<path d="M16-130Q-2-168-38-176Q-6-160 14-124Z"/>
<path d="M16-130Q34-170 72-172Q38-158 18-124Z"/>
<path d="M16-130Q-26-124-46-88Q-18-116 16-126Z"/>
<path d="M16-130Q58-124 78-90Q50-116 16-126Z"/>
</g>
</defs>
<rect width="1600" height="400" fill="url(#cielo)"/>

<rect y="296" width="620" height="40" fill="#2f557f"/>
<rect x="60" y="306" width="180" height="3" fill="#f3e0b8" opacity=".35"/>
<rect x="170" y="276" width="36" height="22" fill="#d8a858"/><rect x="210" y="276" width="36" height="22" fill="#8a5a3a"/><rect x="250" y="276" width="36" height="22" fill="#5d6d80"/><rect x="290" y="276" width="36" height="22" fill="#b5654a"/><rect x="330" y="276" width="36" height="22" fill="#c8864c"/>
<path d="M140 298L162 330H410L432 298Z" fill="#0a2240"/>
<g fill="#0a2240">
<rect x="470" y="170" width="12" height="160"/><rect x="560" y="170" width="12" height="160"/>
<rect x="390" y="158" width="290" height="16"/><rect x="540" y="176" width="40" height="26"/>
<path d="M476 174L566 250L560 256L470 180Z"/>
<rect x="428" y="174" width="4" height="64"/><rect x="408" y="236" width="44" height="8"/>
</g>
<rect x="600" y="300" width="62" height="30" fill="#c8864c"/><path d="M612 304v22M624 304v22M636 304v22M648 304v22" stroke="#000" stroke-opacity=".18" stroke-width="2"/><rect x="664" y="300" width="62" height="30" fill="#3c6d99"/><path d="M676 304v22M688 304v22M700 304v22M712 304v22" stroke="#000" stroke-opacity=".18" stroke-width="2"/><rect x="728" y="300" width="62" height="30" fill="#d8a858"/><path d="M740 304v22M752 304v22M764 304v22M776 304v22" stroke="#000" stroke-opacity=".18" stroke-width="2"/><rect x="632" y="268" width="62" height="30" fill="#8a5a3a"/><path d="M644 272v22M656 272v22M668 272v22M680 272v22" stroke="#000" stroke-opacity=".18" stroke-width="2"/><rect x="696" y="268" width="62" height="30" fill="#5d6d80"/><path d="M708 272v22M720 272v22M732 272v22M744 272v22" stroke="#000" stroke-opacity=".18" stroke-width="2"/><rect x="664" y="236" width="62" height="30" fill="#b5654a"/><path d="M676 240v22M688 240v22M700 240v22M712 240v22" stroke="#000" stroke-opacity=".18" stroke-width="2"/>
<rect x="840" y="178" width="260" height="14" fill="#0a2240"/>
<rect x="850" y="190" width="240" height="140" fill="#0a2240"/>
<rect x="900" y="200" width="140" height="22" rx="4" fill="#e8b868"/>
<polygon points="845,236 886.7,236 896.7,270 860,270" fill="#e8b868"/><polygon points="886.7,236 928.4,236 933.4,270 896.7,270" fill="#f7f3ea"/><polygon points="928.4,236 970.1,236 970.1,270 933.4,270" fill="#e8b868"/><polygon points="970.1,236 1011.8,236 1006.8,270 970.1,270" fill="#f7f3ea"/><polygon points="1011.8,236 1053.5,236 1043.5,270 1006.8,270" fill="#e8b868"/><polygon points="1053.5,236 1095.2,236 1080.2,270 1043.5,270" fill="#f7f3ea"/>
<g fill="#f3e0b8" opacity=".88"><rect x="868" y="284" width="96" height="46"/><rect x="1036" y="284" width="40" height="46"/></g>
<rect x="984" y="284" width="40" height="46" fill="#1d3a5f"/>
<path d="M1130 322V270H1215L1250 292H1268V322Z" fill="#f7f3ea"/>
<path d="M1220 276L1245 292H1220Z" fill="#3f6596"/>
<rect x="1130" y="300" width="120" height="6" fill="#e8b868"/>
<g fill="#0a2240"><circle cx="1160" cy="324" r="14"/><circle cx="1240" cy="324" r="14"/></g>
<g fill="#9fb0c4"><circle cx="1160" cy="324" r="5"/><circle cx="1240" cy="324" r="5"/></g>
<rect x="1310" y="290" width="34" height="40" rx="3" fill="#e8b868" opacity="0.55"/><rect x="1360" y="260" width="34" height="70" rx="3" fill="#e8b868" opacity="0.7"/><rect x="1410" y="225" width="34" height="105" rx="3" fill="#e8b868" opacity="0.85"/><rect x="1460" y="185" width="34" height="145" rx="3" fill="#e8b868" opacity="1"/>
<polyline points="1296,276 1346,246 1396,214 1446,172 1494,140" fill="none" stroke="#f7f3ea" stroke-width="6" stroke-linecap="round" stroke-linejoin="round"/>
<polygon points="1514,126 1482,130 1498,154" fill="#f7f3ea"/>
<rect y="328" width="1600" height="72" fill="#0a2240"/>
</svg>
