<svg xmlns="http://www.w3.org/2000/svg" viewBox="0 0 600 500">
<defs><radialGradient id="halo"><stop offset="0" stop-color="#e8b868" stop-opacity=".22"/><stop offset="1" stop-color="#e8b868" stop-opacity="0"/></radialGradient></defs>
<circle cx="300" cy="250" r="240" fill="url(#halo)"/>

<path d="M170 350V170A130 130 0 0 1 430 170V350Z" fill="#1d4a7a" stroke="#2a5a8c" stroke-width="8"/>
<path d="M300 44V350M170 200H430M170 280H430" stroke="#2a5a8c" stroke-width="6"/>
<path d="M190 330V180A110 110 0 0 1 300 62V330Z" fill="#ffffff" opacity=".04"/>
<path d="M140 372C140 306 172 276 220 276C268 276 300 306 300 372Z" fill="#3c6d99"/>
<polygon points="204,278 236,278 220,312" fill="#f7f3ea"/>
<polygon points="216,288 224,288 228,330 220,340 212,330" fill="#e8b868"/>
<circle cx="220" cy="226" r="40" fill="#f7f3ea"/>
<path d="M182 214C186 186 206 178 222 178C242 178 258 190 260 212C246 200 222 196 182 214Z" fill="#6d86a6"/>
<path d="M302 372C302 308 334 280 380 280C426 280 458 308 458 372Z" fill="#0f2d52"/>
<polygon points="364,282 396,282 380,314" fill="#f7f3ea"/>
<polygon points="376,292 384,292 388,332 380,342 372,332" fill="#e8b868"/>
<circle cx="380" cy="232" r="38" fill="#efe4d0"/>
<path d="M343 226C342 196 362 186 382 186C404 186 420 200 418 224C406 210 372 206 343 226Z" fill="#3a4f6b"/>
<rect x="80" y="364" width="440" height="18" rx="6" fill="#e8b868"/>
<rect x="100" y="382" width="400" height="76" fill="#0f2d52"/>
<rect x="250" y="348" width="80" height="16" rx="2" fill="#f7f3ea" transform="rotate(-4 290 356)"/>
<rect x="262" y="340" width="70" height="10" rx="2" fill="#c4d0de" transform="rotate(3 297 345)"/>
<path d="M150 348h26v16h-26z" fill="#f7f3ea"/><path d="M176 352c8 0 8 10 0 10" fill="none" stroke="#f7f3ea" stroke-width="3"/>
<circle cx="490" cy="110" r="38" fill="#e8b868"/>
<path d="M472 110l12 13 24-26" fill="none" stroke="#0a2240" stroke-width="8" stroke-linecap="round" stroke-linejoin="round"/>
</svg>
