<svg xmlns="http://www.w3.org/2000/svg" viewBox="0 0 1600 900" preserveAspectRatio="xMidYMid slice"> <defs><linearGradient id="sky3" x1="0" y1="0" x2="0" y2="1"><stop offset="0" stop-color="#5d8fcf"/><stop offset=".6" stop-color="#a9c6e6"/><stop offset="1" stop-color="#e9e1cf"/></linearGradient><linearGradient id="gnd" x1="0" y1="0" x2="0" y2="1"><stop offset="0" stop-color="#9a8f80"/><stop offset="1" stop-color="#6f675c"/></linearGradient><linearGradient id="stn" x1="0" y1="0" x2="1" y2="0"><stop offset="0" stop-color="#6b665e"/><stop offset=".5" stop-color="#78726a"/><stop offset="1" stop-color="#5b5750"/></linearGradient></defs> <rect width="1600" height="900" fill="url(#sky3)"/> <g fill="#fff" opacity=".85"><ellipse cx="250" cy="170" rx="170" ry="54"/><ellipse cx="190" cy="146" rx="94" ry="48"/><ellipse cx="301" cy="153" rx="85" ry="42"/></g> <g fill="#fff" opacity=".85"><ellipse cx="420" cy="120" rx="120" ry="38"/><ellipse cx="378" cy="103" rx="66" ry="34"/><ellipse cx="456" cy="108" rx="60" ry="30"/></g> <g fill="#fff" opacity=".85"><ellipse cx="1250" cy="200" rx="190" ry="61"/><ellipse cx="1184" cy="173" rx="105" ry="53"/><ellipse cx="1307" cy="181" rx="95" ry="48"/></g> <g fill="#fff" opacity=".85"><ellipse cx="1400" cy="150" rx="130" ry="42"/><ellipse cx="1354" cy="132" rx="72" ry="36"/><ellipse cx="1439" cy="137" rx="65" ry="32"/></g> <g fill="#fff" opacity=".85"><ellipse cx="980" cy="110" rx="110" ry="35"/><ellipse cx="942" cy="95" rx="61" ry="31"/><ellipse cx="1013" cy="99" rx="55" ry="28"/></g> <g fill="#fff" opacity=".85"><ellipse cx="120" cy="330" rx="110" ry="35"/><ellipse cx="82" cy="315" rx="61" ry="31"/><ellipse cx="153" cy="319" rx="55" ry="28"/></g> <rect x="0" y="560" width="300" height="220" fill="#d9a84d"/><rect x="0" y="548" width="300" height="14" fill="#a8582f"/> <rect x="1320" y="560" width="280" height="220" fill="#b5654a"/><rect x="1330" y="600" width="260" height="10" fill="#5a3517"/><rect x="1330" y="660" width="260" height="10" fill="#5a3517"/> <g fill="#2a1d14" opacity=".6"><rect x="1350" y="620" width="30" height="30"/><rect x="1350" y="680" width="30" height="30"/><rect x="1412" y="620" width="30" height="30"/><rect x="1412" y="680" width="30" height="30"/><rect x="1474" y="620" width="30" height="30"/><rect x="1474" y="680" width="30" height="30"/><rect x="1536" y="620" width="30" height="30"/><rect x="1536" y="680" width="30" height="30"/></g> <rect x="0" y="760" width="1600" height="140" fill="url(#gnd)"/> <line x1="0" y1="760" x2="-960" y2="900" stroke="#5e574d" stroke-width="2" opacity=".5"/> <line x1="100" y1="760" x2="-740" y2="900" stroke="#5e574d" stroke-width="2" opacity=".5"/> <line x1="200" y1="760" x2="-520" y2="900" stroke="#5e574d" stroke-width="2" opacity=".5"/> <line x1="300" y1="760" x2="-300" y2="900" stroke="#5e574d" stroke-width="2" opacity=".5"/> <line x1="400" y1="760" x2="-80" y2="900" stroke="#5e574d" stroke-width="2" opacity=".5"/> <line x1="500" y1="760" x2="140" y2="900" stroke="#5e574d" stroke-width="2" opacity=".5"/> <line x1="600" y1="760" x2="360" y2="900" stroke="#5e574d" stroke-width="2" opacity=".5"/> <line x1="700" y1="760" x2="580" y2="900" stroke="#5e574d" stroke-width="2" opacity=".5"/> <line x1="800" y1="760" x2="800" y2="900" stroke="#5e574d" stroke-width="2" opacity=".5"/> <line x1="900" y1="760" x2="1020" y2="900" stroke="#5e574d" stroke-width="2" opacity=".5"/> <line x1="1000" y1="760" x2="1240" y2="900" stroke="#5e574d" stroke-width="2" opacity=".5"/> <line x1="1100" y1="760" x2="1460" y2="900" stroke="#5e574d" stroke-width="2" opacity=".5"/> <line x1="1200" y1="760" x2="1680" y2="900" stroke="#5e574d" stroke-width="2" opacity=".5"/> <line x1="1300" y1="760" x2="1900" y2="900" stroke="#5e574d" stroke-width="2" opacity=".5"/> <line x1="1400" y1="760" x2="2120" y2="900" stroke="#5e574d" stroke-width="2" opacity=".5"/> <line x1="1500" y1="760" x2="2340" y2="900" stroke="#5e574d" stroke-width="2" opacity=".5"/> <line x1="0" y1="790" x2="1600" y2="790" stroke="#5e574d" stroke-width="2" opacity=".4"/> <line x1="0" y1="830" x2="1600" y2="830" stroke="#5e574d" stroke-width="2" opacity=".4"/> <line x1="0" y1="880" x2="1600" y2="880" stroke="#5e574d" stroke-width="2" opacity=".4"/> <rect x="450" y="413" width="700" height="347" fill="url(#stn)"/> <rect x="440" y="405" width="720" height="11" fill="#4c4842"/><rect x="445" y="530" width="710" height="15" fill="#4c4842"/> <rect x="475" y="432" width="59" height="86" fill="#f3eee2"/> <rect x="570" y="432" width="66" height="86" fill="#f3eee2"/> <rect x="665" y="432" width="64" height="86" fill="#f3eee2"/> <rect x="747" y="432" width="98" height="86" fill="#f3eee2"/> <rect x="864" y="432" width="63" height="86" fill="#f3eee2"/> <rect x="955" y="432" width="63" height="86" fill="#f3eee2"/> <rect x="1055" y="432" width="62" height="86" fill="#f3eee2"/> <rect x="588" y="446" width="26" height="58" fill="#4a3a30"/><rect x="591" y="449" width="20" height="40" fill="#6f7f8c"/><g stroke="#4a3a30" stroke-width="1.5"><line x1="601" y1="449" x2="601" y2="489"/><line x1="591" y1="469" x2="611" y2="469"/></g><rect x="591" y="489" width="20" height="13" fill="#a56a3c"/> <rect x="683" y="446" width="26" height="58" fill="#4a3a30"/><rect x="686" y="449" width="20" height="40" fill="#6f7f8c"/><g stroke="#4a3a30" stroke-width="1.5"><line x1="696" y1="449" x2="696" y2="489"/><line x1="686" y1="469" x2="706" y2="469"/></g><rect x="686" y="489" width="20" height="13" fill="#a56a3c"/> <rect x="880" y="446" width="26" height="58" fill="#4a3a30"/><rect x="883" y="449" width="20" height="40" fill="#6f7f8c"/><g stroke="#4a3a30" stroke-width="1.5"><line x1="893" y1="449" x2="893" y2="489"/><line x1="883" y1="469" x2="903" y2="469"/></g><rect x="883" y="489" width="20" height="13" fill="#a56a3c"/> <rect x="973" y="446" width="26" height="58" fill="#4a3a30"/><rect x="976" y="449" width="20" height="40" fill="#6f7f8c"/><g stroke="#4a3a30" stroke-width="1.5"><line x1="986" y1="449" x2="986" y2="489"/><line x1="976" y1="469" x2="996" y2="469"/></g><rect x="976" y="489" width="20" height="13" fill="#a56a3c"/> <circle cx="796" cy="475" r="35" fill="#4c4842"/><circle cx="796" cy="475" r="29" fill="#8f3c2d"/><circle cx="796" cy="475" r="14" fill="#3d6a8a"/><line x1="796" y1="475" x2="825" y2="475" stroke="#f3eee2" stroke-width="2"/><line x1="796" y1="475" x2="817" y2="496" stroke="#f3eee2" stroke-width="2"/><line x1="796" y1="475" x2="796" y2="504" stroke="#f3eee2" stroke-width="2"/><line x1="796" y1="475" x2="775" y2="496" stroke="#f3eee2" stroke-width="2"/><line x1="796" y1="475" x2="767" y2="475" stroke="#f3eee2" stroke-width="2"/><line x1="796" y1="475" x2="775" y2="454" stroke="#f3eee2" stroke-width="2"/><line x1="796" y1="475" x2="796" y2="446" stroke="#f3eee2" stroke-width="2"/><line x1="796" y1="475" x2="817" y2="454" stroke="#f3eee2" stroke-width="2"/> <circle cx="506" cy="477" r="16" fill="#4c4842"/><circle cx="506" cy="477" r="11" fill="#7c6a57"/><circle cx="1086" cy="477" r="16" fill="#4c4842"/> <polygon points="632,413 800,346 968,413" fill="#6d685f"/><polygon points="660,408 800,352 940,408" fill="#7a746a"/><rect x="796" y="296" width="8" height="52" fill="#4c4842"/><rect x="782" y="309" width="36" height="7" fill="#4c4842"/> <ellipse cx="640" cy="392" rx="9" ry="14" fill="#6d685f"/><rect x="634" y="404" width="12" height="9" fill="#5b5750"/> <ellipse cx="960" cy="392" rx="9" ry="14" fill="#6d685f"/><rect x="954" y="404" width="12" height="9" fill="#5b5750"/> <rect x="475" y="570" width="60" height="180" fill="#f3eee2"/><rect x="1060" y="570" width="60" height="180" fill="#f3eee2"/><rect x="540" y="545" width="520" height="215" fill="#efe9dc"/> <rect x="470" y="545" width="70" height="215" fill="#6d685f" opacity=".0"/> <rect x="640" y="552" width="28" height="198" fill="#6a655d"/><rect x="640" y="552" width="9" height="198" fill="#8a847a" opacity=".6"/><rect x="636" y="745" width="36" height="15" fill="#57524b"/> <rect x="728" y="552" width="28" height="198" fill="#6a655d"/><rect x="728" y="552" width="9" height="198" fill="#8a847a" opacity=".6"/><rect x="724" y="745" width="36" height="15" fill="#57524b"/> <rect x="830" y="552" width="28" height="198" fill="#6a655d"/><rect x="830" y="552" width="9" height="198" fill="#8a847a" opacity=".6"/><rect x="826" y="745" width="36" height="15" fill="#57524b"/> <rect x="928" y="552" width="28" height="198" fill="#6a655d"/><rect x="928" y="552" width="9" height="198" fill="#8a847a" opacity=".6"/><rect x="924" y="745" width="36" height="15" fill="#57524b"/> <path d="M759 650 Q759 622 785 622 Q811 622 811 650 V750 H759Z" fill="#4c4842"/><path d="M766 650 Q766 630 785 630 Q804 630 804 650 V750 H766Z" fill="#6b3f22"/><line x1="785" y1="630" x2="785" y2="750" stroke="#3e2a18" stroke-width="2"/> <rect x="972" y="690" width="36" height="60" fill="#6b3f22"/><rect x="966" y="684" width="48" height="8" fill="#6d685f"/><circle cx="990" cy="652" r="18" fill="#6d685f"/><circle cx="990" cy="652" r="13" fill="#8f3c2d"/> <g stroke="#2a2724" stroke-width="2"><line x1="680" y1="700" x2="680" y2="750"/><line x1="690" y1="708" x2="690" y2="750"/><line x1="696" y1="708" x2="696" y2="750"/><line x1="702" y1="708" x2="702" y2="750"/><line x1="708" y1="708" x2="708" y2="750"/><line x1="714" y1="708" x2="714" y2="750"/><line x1="720" y1="708" x2="720" y2="750"/><line x1="726" y1="708" x2="726" y2="750"/><line x1="862" y1="708" x2="862" y2="750"/><line x1="868" y1="708" x2="868" y2="750"/><line x1="874" y1="708" x2="874" y2="750"/><line x1="880" y1="708" x2="880" y2="750"/><line x1="886" y1="708" x2="886" y2="750"/><line x1="892" y1="708" x2="892" y2="750"/><line x1="898" y1="708" x2="898" y2="750"/><line x1="904" y1="708" x2="904" y2="750"/><line x1="910" y1="708" x2="910" y2="750"/><line x1="916" y1="708" x2="916" y2="750"/><line x1="922" y1="708" x2="922" y2="750"/><line x1="928" y1="708" x2="928" y2="750"/><line x1="680" y1="708" x2="730" y2="708"/><line x1="862" y1="708" x2="930" y2="708"/></g> <rect x="476" y="318" width="124" height="97" fill="url(#stn)"/> <path d="M502 410 V355 Q502 335 515 335 Q528 335 528 355 V410Z" fill="#2d2a27"/><circle cx="515" cy="380" r="9" fill="#c9a45c"/> <path d="M548 410 V355 Q548 335 561 335 Q574 335 574 355 V410Z" fill="#2d2a27"/><circle cx="561" cy="380" r="9" fill="#c9a45c"/> <rect x="469" y="310" width="138" height="10" fill="#7a7466"/><rect x="469" y="308" width="138" height="3" fill="#c8b24a"/> <rect x="488" y="250" width="100" height="60" fill="url(#stn)"/><path d="M518 305 V275 Q518 258 538 258 Q558 258 558 275 V305Z" fill="#2d2a27"/> <rect x="482" y="242" width="112" height="9" fill="#7a7466"/><rect x="482" y="240" width="112" height="3" fill="#c8b24a"/> <rect x="500" y="212" width="76" height="30" fill="#5b5750"/><circle cx="538" cy="226" r="9" fill="#e9dfc8"/> <path d="M494 214 C476 190 506 176 527 162 C533 156 543 156 549 162 C570 176 600 190 582 214Z" fill="#4f4a45"/> <g stroke="#68625a" stroke-width="2" fill="none"><path d="M518 212 C514 190 524 176 534 164"/><path d="M558 212 C562 190 552 176 542 164"/><path d="M538 213 V160"/></g> <rect x="536" y="140" width="4" height="20" fill="#4c4842"/><circle cx="538" cy="140" r="5" fill="#c9a45c"/> <rect x="1000" y="318" width="124" height="97" fill="url(#stn)"/> <path d="M1026 410 V355 Q1026 335 1039 335 Q1052 335 1052 355 V410Z" fill="#2d2a27"/><circle cx="1039" cy="380" r="9" fill="#c9a45c"/> <path d="M1072 410 V355 Q1072 335 1085 335 Q1098 335 1098 355 V410Z" fill="#2d2a27"/><circle cx="1085" cy="380" r="9" fill="#c9a45c"/> <rect x="993" y="310" width="138" height="10" fill="#7a7466"/><rect x="993" y="308" width="138" height="3" fill="#c8b24a"/> <rect x="1012" y="250" width="100" height="60" fill="url(#stn)"/><path d="M1042 305 V275 Q1042 258 1062 258 Q1082 258 1082 275 V305Z" fill="#2d2a27"/> <rect x="1006" y="242" width="112" height="9" fill="#7a7466"/><rect x="1006" y="240" width="112" height="3" fill="#c8b24a"/> <rect x="1024" y="212" width="76" height="30" fill="#5b5750"/><circle cx="1062" cy="226" r="9" fill="#e9dfc8"/> <path d="M1018 214 C1000 190 1030 176 1051 162 C1057 156 1067 156 1073 162 C1094 176 1124 190 1106 214Z" fill="#4f4a45"/> <g stroke="#68625a" stroke-width="2" fill="none"><path d="M1042 212 C1038 190 1048 176 1058 164"/><path d="M1082 212 C1086 190 1076 176 1066 164"/><path d="M1062 213 V160"/></g> <rect x="1060" y="140" width="4" height="20" fill="#4c4842"/><circle cx="1062" cy="140" r="5" fill="#c9a45c"/> <path d="M568 762 C572 692 574 730 580 680 L600 680 C606 730 608 692 612 762Z" fill="#6b5a4a"/> <path d="M590 690 Q558.0 670 510 650" stroke="#6b5a4a" stroke-width="12" fill="none" stroke-linecap="round"/> <polygon points="510,620 481,613 451,615 480,623" fill="#6a9a5e"/> <polygon points="510,620 485,608 455,606 481,618" fill="#3f6a4a"/> <polygon points="510,620 483,603 450,593 477,611" fill="#3f6a4a"/> <polygon points="510,620 491,601 465,589 484,608" fill="#365c41"/> <polygon points="510,620 500,597 480,579 490,602" fill="#365c41"/> <polygon points="510,620 506,596 491,575 496,599" fill="#365c41"/> <polygon points="510,620 517,601 513,582 507,601" fill="#365c41"/> <polygon points="510,620 523,599 527,576 514,597" fill="#365c41"/> <polygon points="510,620 529,603 540,582 520,599" fill="#6a9a5e"/> <polygon points="510,620 534,609 551,592 527,603" fill="#6a9a5e"/> <polygon points="510,620 543,611 571,593 537,602" fill="#365c41"/> <polygon points="510,620 541,617 567,604 537,607" fill="#365c41"/> <polygon points="510,620 544,623 577,617 543,613" fill="#6a9a5e"/> <polygon points="510,620 541,627 572,624 542,617" fill="#6a9a5e"/> <polygon points="510,620 538,631 570,632 542,621" fill="#3f6a4a"/> <polygon points="510,620 536,635 566,641 541,626" fill="#365c41"/> <polygon points="510,620 529,639 556,652 537,633" fill="#365c41"/> <polygon points="510,620 524,641 546,657 532,636" fill="#3f6a4a"/> <polygon points="510,620 513,640 526,657 523,637" fill="#6a9a5e"/> <polygon points="510,620 506,640 513,660 516,640" fill="#365c41"/> <polygon points="510,620 498,637 496,657 508,640" fill="#365c41"/> <polygon points="510,620 494,635 487,653 503,639" fill="#4f7b52"/> <polygon points="510,620 485,633 468,653 493,640" fill="#4f7b52"/> <polygon points="510,620 478,631 452,649 484,638" fill="#365c41"/> <polygon points="510,620 481,622 456,634 485,632" fill="#3f6a4a"/> <polygon points="510,620 472,618 436,625 473,628" fill="#365c41"/> <path d="M590 690 Q590.0 670 590 622" stroke="#6b5a4a" stroke-width="12" fill="none" stroke-linecap="round"/> <polygon points="590,592 559,585 528,588 558,595" fill="#4f7b52"/> <polygon points="590,592 563,579 531,575 558,588" fill="#3f6a4a"/> <polygon points="590,592 568,577 540,570 562,585" fill="#6a9a5e"/> <polygon points="590,592 573,574 549,563 566,581" fill="#4f7b52"/> <polygon points="590,592 581,574 563,560 572,578" fill="#3f6a4a"/> <polygon points="590,592 588,571 576,553 578,574" fill="#365c41"/> <polygon points="590,592 598,571 595,550 588,571" fill="#6a9a5e"/> <polygon points="590,592 605,574 610,554 595,571" fill="#4f7b52"/> <polygon points="590,592 607,578 616,559 598,573" fill="#4f7b52"/> <polygon points="590,592 619,578 641,558 612,571" fill="#3f6a4a"/> <polygon points="590,592 621,584 647,568 615,576" fill="#365c41"/> <polygon points="590,592 620,591 647,581 617,582" fill="#365c41"/> <polygon points="590,592 623,595 655,589 622,585" fill="#4f7b52"/> <polygon points="590,592 620,599 652,596 621,589" fill="#6a9a5e"/> <polygon points="590,592 617,603 648,605 621,594" fill="#6a9a5e"/> <polygon points="590,592 618,609 652,617 624,600" fill="#4f7b52"/> <polygon points="590,592 606,609 629,619 613,602" fill="#365c41"/> <polygon points="590,592 602,613 624,628 611,607" fill="#4f7b52"/> <polygon points="590,592 593,612 606,629 603,609" fill="#365c41"/> <polygon points="590,592 588,615 595,638 598,615" fill="#3f6a4a"/> <polygon points="590,592 576,610 572,631 586,613" fill="#3f6a4a"/> <polygon points="590,592 572,606 564,625 581,611" fill="#4f7b52"/> <polygon points="590,592 563,604 544,623 571,611" fill="#4f7b52"/> <polygon points="590,592 559,601 535,618 566,609" fill="#365c41"/> <polygon points="590,592 557,595 527,607 560,604" fill="#365c41"/> <polygon points="590,592 557,591 526,599 559,600" fill="#6a9a5e"/> <path d="M590 690 Q622.0 670 670 654" stroke="#6b5a4a" stroke-width="12" fill="none" stroke-linecap="round"/> <polygon points="670,624 633,617 595,619 632,627" fill="#4f7b52"/> <polygon points="670,624 637,612 600,609 634,621" fill="#4f7b52"/> <polygon points="670,624 649,608 621,600 642,616" fill="#3f6a4a"/> <polygon points="670,624 653,604 627,590 645,610" fill="#6a9a5e"/> <polygon points="670,624 659,602 639,584 650,606" fill="#6a9a5e"/> <polygon points="670,624 668,605 656,589 658,608" fill="#4f7b52"/> <polygon points="670,624 674,601 667,579 664,601" fill="#3f6a4a"/> <polygon points="670,624 684,604 687,581 674,601" fill="#6a9a5e"/> <polygon points="670,624 692,609 705,588 683,603" fill="#4f7b52"/> <polygon points="670,624 696,611 714,591 688,604" fill="#6a9a5e"/> <polygon points="670,624 701,618 726,603 695,609" fill="#3f6a4a"/> <polygon points="670,624 703,620 733,607 699,611" fill="#6a9a5e"/> <polygon points="670,624 701,627 732,620 700,617" fill="#4f7b52"/> <polygon points="670,624 699,630 729,626 700,620" fill="#3f6a4a"/> <polygon points="670,624 699,635 730,637 702,626" fill="#3f6a4a"/> <polygon points="670,624 696,639 728,646 701,631" fill="#6a9a5e"/> <polygon points="670,624 693,644 722,657 700,637" fill="#6a9a5e"/> <polygon points="670,624 682,644 703,660 691,639" fill="#6a9a5e"/> <polygon points="670,624 674,643 688,659 684,640" fill="#365c41"/> <polygon points="670,624 666,644 671,665 676,644" fill="#6a9a5e"/> <polygon points="670,624 659,646 658,669 669,647" fill="#4f7b52"/> <polygon points="670,624 649,642 636,665 657,647" fill="#6a9a5e"/> <polygon points="670,624 643,638 624,658 651,644" fill="#4f7b52"/> <polygon points="670,624 643,631 622,647 649,639" fill="#4f7b52"/> <polygon points="670,624 635,629 603,642 639,638" fill="#365c41"/> <polygon points="670,624 633,622 597,631 634,632" fill="#4f7b52"/> <path d="M1113 762 C1117 692 1119 665 1125 615 L1145 615 C1151 665 1153 692 1157 762Z" fill="#6b5a4a"/> <path d="M1135 625 Q1093.0 605 1030 585" stroke="#6b5a4a" stroke-width="12" fill="none" stroke-linecap="round"/> <polygon points="1030,555 989,546 947,550 988,559" fill="#3f6a4a"/> <polygon points="1030,555 990,538 945,533 985,550" fill="#6a9a5e"/> <polygon points="1030,555 999,533 959,523 991,544" fill="#6a9a5e"/> <polygon points="1030,555 1010,530 979,514 999,538" fill="#4f7b52"/> <polygon points="1030,555 1018,527 995,503 1006,532" fill="#3f6a4a"/> <polygon points="1030,555 1028,528 1013,505 1015,531" fill="#6a9a5e"/> <polygon points="1030,555 1039,528 1035,500 1026,527" fill="#6a9a5e"/> <polygon points="1030,555 1048,531 1053,504 1035,528" fill="#4f7b52"/> <polygon points="1030,555 1056,533 1070,505 1044,527" fill="#365c41"/> <polygon points="1030,555 1060,541 1079,518 1050,532" fill="#4f7b52"/> <polygon points="1030,555 1071,545 1106,525 1064,534" fill="#365c41"/> <polygon points="1030,555 1072,553 1110,539 1068,541" fill="#365c41"/> <polygon points="1030,555 1079,559 1126,549 1077,545" fill="#3f6a4a"/> <polygon points="1030,555 1078,565 1127,562 1079,552" fill="#4f7b52"/> <polygon points="1030,555 1068,570 1110,572 1072,557" fill="#4f7b52"/> <polygon points="1030,555 1058,573 1094,581 1066,562" fill="#3f6a4a"/> <polygon points="1030,555 1056,581 1092,598 1066,572" fill="#3f6a4a"/> <polygon points="1030,555 1045,584 1072,608 1057,578" fill="#3f6a4a"/> <polygon points="1030,555 1037,583 1056,608 1049,580" fill="#6a9a5e"/> <polygon points="1030,555 1023,586 1030,616 1037,586" fill="#3f6a4a"/> <polygon points="1030,555 1011,583 1006,614 1024,586" fill="#3f6a4a"/> <polygon points="1030,555 1006,577 995,604 1018,582" fill="#4f7b52"/> <polygon points="1030,555 994,573 968,600 1004,582" fill="#365c41"/> <polygon points="1030,555 988,565 954,587 996,576" fill="#4f7b52"/> <polygon points="1030,555 984,559 943,575 989,571" fill="#365c41"/> <polygon points="1030,555 983,553 938,565 985,566" fill="#6a9a5e"/> <path d="M1135 625 Q1135.0 605 1135 557" stroke="#6b5a4a" stroke-width="12" fill="none" stroke-linecap="round"/> <polygon points="1135,527 1095,515 1052,516 1092,528" fill="#6a9a5e"/> <polygon points="1135,527 1101,510 1060,505 1095,522" fill="#6a9a5e"/> <polygon points="1135,527 1108,508 1073,500 1100,519" fill="#4f7b52"/> <polygon points="1135,527 1114,502 1083,484 1104,510" fill="#365c41"/> <polygon points="1135,527 1122,501 1097,480 1110,507" fill="#3f6a4a"/> <polygon points="1135,527 1131,502 1115,481 1119,506" fill="#365c41"/> <polygon points="1135,527 1143,501 1138,476 1130,501" fill="#3f6a4a"/> <polygon points="1135,527 1154,503 1160,475 1141,499" fill="#6a9a5e"/> <polygon points="1135,527 1165,505 1184,477 1154,499" fill="#4f7b52"/> <polygon points="1135,527 1167,515 1190,493 1158,505" fill="#4f7b52"/> <polygon points="1135,527 1172,520 1203,502 1166,509" fill="#365c41"/> <polygon points="1135,527 1175,523 1209,507 1170,511" fill="#3f6a4a"/> <polygon points="1135,527 1184,529 1232,518 1182,516" fill="#3f6a4a"/> <polygon points="1135,527 1173,535 1212,531 1174,522" fill="#365c41"/> <polygon points="1135,527 1175,543 1219,547 1180,531" fill="#4f7b52"/> <polygon points="1135,527 1168,549 1209,560 1176,538" fill="#4f7b52"/> <polygon points="1135,527 1159,553 1194,571 1170,545" fill="#365c41"/> <polygon points="1135,527 1150,556 1177,578 1162,550" fill="#4f7b52"/> <polygon points="1135,527 1139,552 1155,575 1151,549" fill="#365c41"/> <polygon points="1135,527 1129,551 1137,575 1142,551" fill="#4f7b52"/> <polygon points="1135,527 1120,555 1118,586 1133,558" fill="#6a9a5e"/> <polygon points="1135,527 1111,547 1098,573 1122,553" fill="#6a9a5e"/> <polygon points="1135,527 1103,543 1082,568 1114,552" fill="#6a9a5e"/> <polygon points="1135,527 1097,535 1066,555 1104,546" fill="#3f6a4a"/> <polygon points="1135,527 1089,533 1049,551 1095,545" fill="#3f6a4a"/> <polygon points="1135,527 1087,526 1041,539 1089,539" fill="#3f6a4a"/> <path d="M1135 625 Q1177.0 605 1240 589" stroke="#6b5a4a" stroke-width="12" fill="none" stroke-linecap="round"/> <polygon points="1240,559 1197,549 1152,552 1195,562" fill="#6a9a5e"/> <polygon points="1240,559 1203,541 1160,535 1197,553" fill="#6a9a5e"/> <polygon points="1240,559 1209,536 1169,522 1200,546" fill="#6a9a5e"/> <polygon points="1240,559 1219,536 1188,522 1209,545" fill="#4f7b52"/> <polygon points="1240,559 1224,531 1196,510 1212,538" fill="#365c41"/> <polygon points="1240,559 1235,530 1218,504 1223,533" fill="#6a9a5e"/> <polygon points="1240,559 1248,536 1242,512 1235,535" fill="#4f7b52"/> <polygon points="1240,559 1257,532 1262,501 1244,529" fill="#365c41"/> <polygon points="1240,559 1268,539 1284,513 1256,532" fill="#365c41"/> <polygon points="1240,559 1272,546 1294,525 1262,537" fill="#4f7b52"/> <polygon points="1240,559 1285,549 1322,528 1278,538" fill="#3f6a4a"/> <polygon points="1240,559 1284,556 1323,541 1279,544" fill="#365c41"/> <polygon points="1240,559 1280,564 1320,556 1279,551" fill="#3f6a4a"/> <polygon points="1240,559 1283,569 1328,566 1285,556" fill="#4f7b52"/> <polygon points="1240,559 1282,574 1327,576 1286,561" fill="#365c41"/> <polygon points="1240,559 1275,582 1318,594 1283,571" fill="#365c41"/> <polygon points="1240,559 1270,585 1310,602 1279,576" fill="#3f6a4a"/> <polygon points="1240,559 1255,584 1282,602 1267,577" fill="#365c41"/> <polygon points="1240,559 1243,583 1258,605 1256,580" fill="#3f6a4a"/> <polygon points="1240,559 1237,588 1247,616 1250,587" fill="#4f7b52"/> <polygon points="1240,559 1224,587 1221,618 1237,590" fill="#365c41"/> <polygon points="1240,559 1214,578 1201,604 1226,585" fill="#6a9a5e"/> <polygon points="1240,559 1207,575 1184,599 1217,583" fill="#4f7b52"/> <polygon points="1240,559 1197,572 1161,596 1205,583" fill="#365c41"/> <polygon points="1240,559 1199,563 1164,578 1204,575" fill="#4f7b52"/> <polygon points="1240,559 1197,556 1155,566 1198,569" fill="#4f7b52"/> <g fill="#3d6a45"><ellipse cx="170" cy="768" rx="70" ry="16"/><ellipse cx="1480" cy="772" rx="80" ry="16"/></g> </svg>
